<?xml version="1.0" encoding="iso-8859-1"?>
<!-- Generator: Adobe Illustrator 19.0.0, SVG Export Plug-In . SVG Version: 6.00 Build 0)  -->
<svg version="1.1" id="Layer_1" xmlns="http://www.w3.org/2000/svg" xmlns:xlink="http://www.w3.org/1999/xlink" x="0px" y="0px"
	 viewBox="0 0 512 512" style="enable-background:new 0 0 512 512;" xml:space="preserve">
<circle style="fill:#FFD15D;" cx="256" cy="256" r="256"/>
<path style="fill:#F9B54C;" d="M509.621,290.904L335.369,116.652L217.067,285.449l-42.942,107.565l116.627,116.627
	C404.28,494.232,494.146,404.409,509.621,290.904z"/>
<path style="fill:#324A5E;" d="M326.68,398.222H185.32c-8.092,0-14.653-6.561-14.653-14.653V128.431
	c0-8.092,6.561-14.653,14.653-14.653h141.36c8.092,0,14.653,6.561,14.653,14.653v255.138
	C341.333,391.663,334.774,398.222,326.68,398.222z"/>
<path style="fill:#2B3B4E;" d="M326.68,113.778h-72.116v284.444h72.116c8.092,0,14.653-6.561,14.653-14.653V128.431
	C341.333,120.337,334.774,113.778,326.68,113.778z"/>
<rect x="178.424" y="128.431" style="fill:#3C5566;" width="155.152" height="227.556"/>
<rect x="254.569" y="128.431" style="fill:#324A5E;" width="79.012" height="227.556"/>
<circle style="fill:#3C5566;" cx="256" cy="376.673" r="11.205"/>
<path style="fill:#324A5E;" d="M256,365.468c-0.488,0-0.965,0.041-1.436,0.102v22.206c0.471,0.06,0.948,0.102,1.436,0.102
	c6.189,0,11.205-5.017,11.205-11.205S262.189,365.468,256,365.468z"/>
<g>
	<rect x="227.556" y="176.7" style="fill:#CFDBE6;" width="95.677" height="6.896"/>
	<rect x="227.556" y="230.572" style="fill:#CFDBE6;" width="95.677" height="6.896"/>
	<rect x="227.556" y="284.444" style="fill:#CFDBE6;" width="95.677" height="6.896"/>
</g>
<g>
	<rect x="254.569" y="176.7" style="fill:#B8C9D9;" width="68.668" height="6.896"/>
	<rect x="254.569" y="230.572" style="fill:#B8C9D9;" width="68.668" height="6.896"/>
	<rect x="254.569" y="284.444" style="fill:#B8C9D9;" width="68.668" height="6.896"/>
</g>
<g>
	<rect x="190.061" y="155.152" style="fill:#E6F3FF;" width="28.444" height="28.444"/>
	<rect x="190.061" y="209.024" style="fill:#E6F3FF;" width="28.444" height="28.444"/>
	<rect x="190.061" y="262.896" style="fill:#E6F3FF;" width="28.444" height="28.444"/>
</g>
<g>
	<polygon style="fill:#FD8469;" points="202.004,179.902 188.618,165.4 194.951,159.556 202.252,167.465 227.525,142.191 
		233.62,148.287 	"/>
	<polygon style="fill:#FD8469;" points="202.004,233.774 188.618,219.272 194.951,213.428 202.252,221.337 227.525,196.063 
		233.62,202.159 	"/>
</g>
<g>
</g>
<g>
</g>
<g>
</g>
<g>
</g>
<g>
</g>
<g>
</g>
<g>
</g>
<g>
</g>
<g>
</g>
<g>
</g>
<g>
</g>
<g>
</g>
<g>
</g>
<g>
</g>
<g>
</g>
</svg>
